<?xml version="1.0" encoding="UTF-8"?>
<svg id="Layer_1" xmlns="http://www.w3.org/2000/svg" version="1.1" viewBox="0 0 24 24">
  <!-- Generator: Adobe Illustrator 29.2.1, SVG Export Plug-In . SVG Version: 2.1.0 Build 116)  -->
  <path d="M2.4,21.2c-.7,0-1.2-.2-1.7-.7S0,19.5,0,18.8V4.4C0,3.7.2,3.2.7,2.7c.5-.5,1-.7,1.7-.7h19.2c.7,0,1.2.2,1.7.7s.7,1,.7,1.7v14.4c0,.7-.2,1.2-.7,1.7s-1,.7-1.7.7H2.4ZM12,12.6c.1,0,.2,0,.3,0s.2,0,.3-.1l8.5-5.3c.2,0,.3-.2.4-.4s.1-.3.1-.5c0-.4-.2-.7-.5-.9s-.7-.2-1,0l-8,5L4,5.4c-.4-.2-.7-.2-1,0s-.5.5-.5.9,0,.4.1.5.2.3.4.3l8.5,5.3c.1,0,.2.1.3.1s.2,0,.3,0Z"/>
</svg>