<?xml version="1.0" encoding="UTF-8"?>
<svg id="Layer_1" xmlns="http://www.w3.org/2000/svg" xmlns:xlink="http://www.w3.org/1999/xlink" version="1.1" viewBox="0 0 24 24">
  <!-- Generator: Adobe Illustrator 29.2.1, SVG Export Plug-In . SVG Version: 2.1.0 Build 116)  -->
  <defs>
    <style>
      .st0 {
        fill: none;
        stroke: #000;
        stroke-miterlimit: 10;
        stroke-width: 1.5px;
      }
    </style>
  </defs>
  <path class="st0" d="M3,1.2h2.8c1.2,0,2.2,1,2.2,2.2v5.4c0,1.2-1,2.2-2.2,2.2h-2.5c-1.2,0-2.2-1-2.2-2.2V3.1c0-1.1.9-1.9,1.9-1.9Z"/>
  <path class="st0" d="M11.8,1.2h8.9c1.2,0,2.2,1,2.2,2.2v5.4c0,1.2-1,2.2-2.2,2.2h-8.7c-1.2,0-2.2-1-2.2-2.2V3.1c0-1.1.9-1.9,1.9-1.9Z"/>
  <path class="st0" d="M3.3,13h17.4c1.2,0,2.2,1,2.2,2.2v5.4c0,1.2-1,2.2-2.2,2.2H3.6c-1.2,0-2.2-1-2.2-2.2v-5.7c0-1.1.9-1.9,1.9-1.9Z"/>
</svg>