<?xml version="1.0" encoding="UTF-8"?>
<svg id="Layer_1" xmlns="http://www.w3.org/2000/svg" xmlns:xlink="http://www.w3.org/1999/xlink" version="1.1" viewBox="0 0 25.2 24">
  <!-- Generator: Adobe Illustrator 29.2.1, SVG Export Plug-In . SVG Version: 2.1.0 Build 116)  -->
  <defs>
    <style>
      .st0 {
        fill: none;
        stroke: #000;
        stroke-miterlimit: 10;
        stroke-width: 2px;
      }
    </style>
  </defs>
  <path class="st0" d="M3.2,1.2h2.6c1.1,0,2.1.9,2.1,2.1v5.1c0,1.1-.9,2.1-2.1,2.1h-2.3c-1.1,0-2.1-.9-2.1-2.1V3c0-1,.8-1.8,1.8-1.8Z"/>
  <path class="st0" d="M13.1,1.2h8.3c1.1,0,2.1.9,2.1,2.1v5.1c0,1.1-.9,2.1-2.1,2.1h-8.2c-1.1,0-2.1-.9-2.1-2.1V3c0-1,.8-1.8,1.8-1.8h0Z"/>
  <path class="st0" d="M3.3,13.7h17.9c1.2,0,2.3.9,2.3,2.1v5.1c0,1.1-1,2.1-2.3,2.1H3.6c-1.2,0-2.3-.9-2.3-2.1v-5.3c0-1,.9-1.8,2-1.8Z"/>
</svg>