<?xml version="1.0" encoding="UTF-8"?>
<svg id="Layer_1" xmlns="http://www.w3.org/2000/svg" xmlns:xlink="http://www.w3.org/1999/xlink" version="1.1" viewBox="0 0 24 24">
  <!-- Generator: Adobe Illustrator 29.2.1, SVG Export Plug-In . SVG Version: 2.1.0 Build 116)  -->
  <defs>
    <style>
      .st0 {
        fill: none;
      }

      .st1 {
        fill: #fff;
      }

      .st2 {
        clip-path: url(#clippath);
      }
    </style>
    <clipPath id="clippath">
      <rect class="st0" width="24" height="24"/>
    </clipPath>
  </defs>
  <rect x="1.4" y="1.4" width="21.3" height="21.3"/>
  <g class="st2">
    <path class="st1" d="M6.7,18.7h6.7c.4,0,.7-.1.9-.4.3-.3.4-.6.4-1s-.1-.7-.4-1c-.3-.3-.6-.4-.9-.4h-6.7c-.4,0-.7.1-.9.4-.3.3-.4.6-.4,1s.1.7.4,1c.3.3.6.4.9.4ZM6.7,13.3h10.7c.4,0,.7-.1,1-.4.3-.3.4-.6.4-.9s-.1-.7-.4-.9c-.3-.3-.6-.4-1-.4H6.7c-.4,0-.7.1-.9.4-.3.3-.4.6-.4.9s.1.7.4.9c.3.3.6.4.9.4ZM6.7,8h10.7c.4,0,.7-.1,1-.4.3-.3.4-.6.4-.9s-.1-.7-.4-.9c-.3-.3-.6-.4-1-.4H6.7c-.4,0-.7.1-.9.4-.3.3-.4.6-.4.9s.1.7.4.9.6.4.9.4ZM2.7,24c-.7,0-1.4-.3-1.9-.8C.3,22.7,0,22.1,0,21.3V2.7C0,1.9.3,1.3.8.8,1.3.3,1.9,0,2.7,0h18.7C22.1,0,22.7.3,23.2.8c.5.5.8,1.1.8,1.9v18.7c0,.7-.3,1.4-.8,1.9-.5.5-1.1.8-1.9.8H2.7Z"/>
  </g>
</svg>