<?xml version="1.0" encoding="UTF-8"?>
<svg id="Layer_1" xmlns="http://www.w3.org/2000/svg" xmlns:xlink="http://www.w3.org/1999/xlink" version="1.1" viewBox="0 0 24 24">
  <!-- Generator: Adobe Illustrator 29.2.1, SVG Export Plug-In . SVG Version: 2.1.0 Build 116)  -->
  <defs>
    <style>
      .st0 {
        fill: none;
      }

      .st1 {
        fill: #fff;
      }

      .st2 {
        clip-path: url(#clippath);
      }
    </style>
    <clipPath id="clippath">
      <rect class="st0" width="24" height="24"/>
    </clipPath>
  </defs>
  <rect x="1.4" y="1.4" width="21.3" height="21.3"/>
  <g class="st2">
    <path class="st1" d="M22.3,0H1.7C.8,0,0,.8,0,1.7v20.5C0,23.2.8,24,1.7,24h20.6c.9,0,1.7-.8,1.7-1.7V1.7c0-1-.8-1.7-1.7-1.7ZM7.3,20.6h-3.6v-11.5h3.6v11.5h0ZM5.5,7.6c-1.1,0-2.1-.9-2.1-2.1s.9-2.1,2.1-2.1,2.1.9,2.1,2.1-.9,2.1-2.1,2.1ZM20.6,20.6h-3.6v-5.6c0-1.3,0-3-1.8-3s-2.1,1.4-2.1,2.9v5.7h-3.6v-11.5h3.4v1.6h0c.5-.9,1.6-1.8,3.4-1.8,3.6,0,4.3,2.4,4.3,5.5v6.3Z"/>
  </g>
</svg>